HIERARCHY
ROOT Hips
{
 OFFSET 0.000000 0.000000 0.000000
 CHANNELS 6 Xposition Yposition Zposition Yrotation Xrotation Zrotation
 JOINT Chest
 {
  OFFSET 0.000000 14.374500 -0.011500
  CHANNELS 3 Yrotation Xrotation Zrotation
  JOINT Chest2
  {
   OFFSET 0.000000 9.203400 0.023400
   CHANNELS 3 Yrotation Xrotation Zrotation
   JOINT Chest3
   {
    OFFSET 0.000000 9.162700 0.000000
    CHANNELS 3 Yrotation Xrotation Zrotation
    JOINT Chest4
    {
     OFFSET 0.000000 9.153300 0.000000
     CHANNELS 3 Yrotation Xrotation Zrotation
     JOINT Neck
     {
      OFFSET 0.000000 13.353600 0.000000
      CHANNELS 3 Yrotation Xrotation Zrotation
      JOINT Head
      {
       OFFSET 0.000000 8.573800 0.049400
       CHANNELS 3 Yrotation Xrotation Zrotation
       End Site
       {
        OFFSET 0.000000 16.219200 0.026100
       }
      }
     }
     JOINT RightCollar
     {
      OFFSET -2.497100 8.876100 0.000000
      CHANNELS 3 Yrotation Xrotation Zrotation
      JOINT RightShoulder
      {
       OFFSET -12.289200 0.000000 0.000000
       CHANNELS 3 Yrotation Xrotation Zrotation
       JOINT RightElbow
       {
        OFFSET 0.000000 -28.194900 0.000000
        CHANNELS 3 Yrotation Xrotation Zrotation
        JOINT RightWrist
        {
         OFFSET 0.000000 -23.009700 0.007900
         CHANNELS 3 Yrotation Xrotation Zrotation
         End Site
         {
          OFFSET 0.000000 -17.151500 0.000000
         }
        }
       }
      }
     }
     JOINT LeftCollar
     {
      OFFSET 2.497100 8.876100 0.000000
      CHANNELS 3 Yrotation Xrotation Zrotation
      JOINT LeftShoulder
      {
       OFFSET 12.289200 0.000000 0.000000
       CHANNELS 3 Yrotation Xrotation Zrotation
       JOINT LeftElbow
       {
        OFFSET 0.000000 -28.194900 0.000000
        CHANNELS 3 Yrotation Xrotation Zrotation
        JOINT LeftWrist
        {
         OFFSET 0.000000 -23.009700 0.007900
         CHANNELS 3 Yrotation Xrotation Zrotation
         End Site
         {
          OFFSET 0.000000 -17.151500 0.000000
         }
        }
       }
      }
     }
    }
   }
  }
 }
 JOINT RightHip
 {
  OFFSET -11.777600 0.056700 0.005700
  CHANNELS 3 Yrotation Xrotation Zrotation
  JOINT RightKnee
  {
   OFFSET 0.000000 -39.966000 -0.004200
   CHANNELS 3 Yrotation Xrotation Zrotation
   JOINT RightAnkle
   {
    OFFSET 0.000000 -41.981900 0.027400
    CHANNELS 3 Yrotation Xrotation Zrotation
    JOINT RightToe
    {
     OFFSET 0.000000 -9.910600 16.950100
     CHANNELS 3 Yrotation Xrotation Zrotation
     End Site
     {
      OFFSET 0.000000 -1.461000 6.191600
     }
    }
   }
  }
 }
 JOINT LeftHip
 {
  OFFSET 11.777600 0.056700 0.005700
  CHANNELS 3 Yrotation Xrotation Zrotation
  JOINT LeftKnee
  {
   OFFSET 0.000000 -39.966000 -0.004200
   CHANNELS 3 Yrotation Xrotation Zrotation
   JOINT LeftAnkle
   {
    OFFSET 0.000000 -41.981900 0.027400
    CHANNELS 3 Yrotation Xrotation Zrotation
    JOINT LeftToe
    {
     OFFSET 0.000000 -9.910600 16.950100
     CHANNELS 3 Yrotation Xrotation Zrotation
     End Site
     {
      OFFSET 0.000000 -1.461000 6.191600
     }
    }
   }
  }
 }
}
MOTION
Frames: 8
Frame Time: 0.008333
-4.450619 130.452181 81.873145 178.879792 -48.579895 -3.809870 5.708885 26.428069 4.352141 0.817189 4.601934 0.545938 1.318049 7.277209 0.893768 4.422354 21.597944 3.287527 -2.141504 12.498735 -4.347112 -1.290809 -12.504028 -4.136956 -0.874320 -4.279195 1.389222 8.890923 -9.714013 -14.736336 -84.832674 -57.283053 127.047877 8.516995 22.206172 11.496263 -7.981529 -6.166259 2.016017 -5.484456 -2.464450 10.503707 54.560491 -37.505445 -107.792439 9.816800 -2.463601 -5.263666 7.343453 -28.721854 1.752790 -79.998761 82.582428 -85.183114 0.272228 -25.775588 10.456213 0.001304 -0.007576 0.000763 -2.838095 -25.663278 -4.386094 145.335352 71.592163 155.181949 -1.299896 -3.153506 -8.429073 -0.000351 0.000135 -0.000205
-4.451431 130.451989 81.869417 178.883693 -48.556933 -3.811432 5.703586 26.410800 4.349128 0.816314 4.598688 0.546556 1.315360 7.271417 0.895225 4.419326 21.592545 3.286227 -2.145476 12.516342 -4.353901 -1.330605 -12.423024 -4.150744 -0.869092 -4.280440 1.392777 8.845905 -9.799175 -14.750024 -84.665775 -56.759979 127.236887 8.734423 21.821093 12.946013 -7.995369 -6.206517 1.985056 -5.461329 -2.412517 10.517127 54.545279 -37.112928 -108.094161 9.746066 -1.945788 -6.456592 7.353170 -28.741537 1.748588 -80.001547 82.579441 -85.183246 0.265543 -25.776083 10.463265 0.000673 -0.007731 0.000393 -2.845086 -25.683104 -4.381267 145.343625 71.591676 155.187402 -1.299304 -3.159341 -8.431219 -0.001365 0.000839 -0.000798
-4.452992 130.453320 81.864397 178.888141 -48.542926 -3.810306 5.696317 26.413655 4.349488 0.816541 4.583708 0.541257 1.310095 7.264953 0.896840 4.421743 21.594828 3.282417 -2.173587 12.555243 -4.364559 -1.347711 -12.356834 -4.162611 -0.867495 -4.303897 1.410645 8.829105 -9.872272 -14.778934 -84.479221 -56.260497 127.394397 8.961887 21.484886 14.269835 -8.001986 -6.218950 1.974952 -5.443946 -2.394168 10.497032 54.509268 -36.793378 -108.369482 9.714202 -1.530059 -7.494772 7.362228 -28.751826 1.740710 -80.049824 82.584846 -85.231106 0.257902 -25.782759 10.464655 -0.001438 -0.009812 -0.000841 -2.850357 -25.695515 -4.378864 145.356546 71.593949 155.197351 -1.300816 -3.158241 -8.432677 -0.000387 -0.001884 -0.000226
-4.453997 130.455097 81.859193 178.892866 -48.531995 -3.811777 5.687014 26.411775 4.345889 0.819589 4.579677 0.542633 1.307261 7.258912 0.894779 4.418379 21.584836 3.284467 -2.195750 12.610477 -4.380161 -1.365922 -12.280347 -4.175435 -0.855396 -4.317084 1.417472 8.824180 -9.887469 -14.796934 -84.374967 -55.813837 127.623487 9.192101 21.205036 15.504873 -8.034612 -6.241116 1.931587 -5.409240 -2.354544 10.502305 54.468153 -36.531137 -108.612934 9.699273 -1.233827 -8.389932 7.367743 -28.759741 1.737229 -80.103107 82.584616 -85.282525 0.256109 -25.782657 10.459768 -0.003359 -0.009382 -0.001964 -2.845281 -25.701518 -4.365461 145.372978 71.601269 155.214105 -1.309897 -3.161159 -8.426225 0.002597 -0.002568 0.001518
-4.454730 130.454860 81.855982 178.898944 -48.510983 -3.815775 5.673823 26.399592 4.341014 0.818485 4.574645 0.543082 1.309059 7.254013 0.893597 4.396266 21.567418 3.286885 -2.205526 12.681453 -4.403071 -1.379444 -12.189435 -4.191071 -0.831687 -4.321319 1.420688 8.872753 -9.962134 -14.841925 -84.158088 -55.395015 127.696127 9.407731 20.960306 16.702177 -8.029778 -6.223477 1.898054 -5.454039 -2.343501 10.462626 54.467598 -36.329050 -108.797828 9.675949 -1.031059 -9.177917 7.371589 -28.777518 1.734550 -80.132917 82.584559 -85.308475 0.251450 -25.786684 10.460825 -0.002403 -0.009812 -0.001405 -2.848551 -25.720573 -4.358588 145.366711 71.597650 155.204306 -1.316985 -3.169494 -8.421629 -0.002034 -0.002064 -0.001189
-4.455012 130.454182 81.853380 178.903275 -48.488540 -3.820517 5.665471 26.381446 4.339070 0.805906 4.575942 0.544129 1.313419 7.244299 0.891381 4.397824 21.565536 3.285976 -2.255467 12.808754 -4.421802 -1.373642 -12.147865 -4.205341 -0.834905 -4.330130 1.433934 8.962702 -10.041160 -14.892499 -83.915856 -55.028523 127.715352 9.573324 20.692739 17.887213 -8.045300 -6.207141 1.879117 -5.486957 -2.345605 10.451446 54.463415 -36.121424 -108.971829 9.636516 -0.886170 -9.885493 7.372017 -28.798510 1.733629 -80.165407 82.589634 -85.339429 0.253614 -25.789735 10.451438 -0.002043 -0.009940 -0.001195 -2.851391 -25.741213 -4.349543 145.376592 71.598786 155.213585 -1.319716 -3.174723 -8.418594 -0.003813 -0.001728 -0.002229
-4.455836 130.452868 81.851457 178.911173 -48.463680 -3.825837 5.652821 26.360893 4.334605 0.807312 4.573189 0.543685 1.283555 7.235409 0.894543 4.404751 21.563909 3.281898 -2.284651 12.922773 -4.444770 -1.376973 -12.066737 -4.223593 -0.824505 -4.329095 1.439553 9.013628 -10.065049 -14.923639 -83.685593 -54.732142 127.790453 9.689604 20.383217 19.058409 -8.049770 -6.181018 1.853055 -5.526856 -2.353896 10.431822 54.445620 -35.910813 -109.101602 9.593527 -0.772051 -10.515481 7.371882 -28.821509 1.731576 -80.206638 82.594464 -85.380185 0.245680 -25.792105 10.448025 -0.004672 -0.009503 -0.002731 -2.853691 -25.764181 -4.341554 145.391036 71.600681 155.229569 -1.324243 -3.182443 -8.417162 -0.003668 -0.000037 -0.002145
-4.456152 130.453962 81.847606 178.916299 -48.452907 -3.830759 5.637900 26.357197 4.331959 0.804049 4.569028 0.543216 1.287046 7.231419 0.892089 4.349838 21.546185 3.278888 -2.252103 12.989983 -4.473054 -1.401988 -11.904795 -4.246753 -0.777434 -4.310644 1.451932 9.145308 -10.140998 -15.001395 -83.355492 -54.449417 127.692014 9.832453 20.120975 20.202241 -8.017146 -6.142158 1.816120 -5.577049 -2.365017 10.393785 54.405363 -35.673342 -109.174293 9.550733 -0.666326 -11.070200 7.379591 -28.831186 1.733025 -80.268912 82.594393 -85.439100 0.252333 -25.792791 10.443883 -0.003623 -0.010793 -0.002118 -2.851718 -25.772834 -4.333092 145.413679 71.603054 155.255990 -1.324569 -3.188260 -8.420032 -0.002350 -0.002163 -0.001374
